<svg width="200" height="68" viewBox="0 0 200 68" fill="none" xmlns="http://www.w3.org/2000/svg">
<g clip-path="url(#clip0_165_374)">
<path d="M0 56.2399V11.7599C0 5.51994 5.08 0.439941 11.32 0.439941H188.72C194.96 0.439941 200.04 5.51994 200.04 11.7599V56.2799C200.04 62.5199 194.96 67.5999 188.72 67.5999H11.32C5.08 67.5599 0 62.5199 0 56.2399Z" fill="white"/>
<path d="M24.76 27.4798H28.6L26.76 17.5198L24.76 27.4798Z" fill="#EA5C25"/>
<path d="M100.48 18.7598H95.4C94.52 18.7598 93.8 19.4798 93.8 20.3598V25.8798C93.8 26.7598 94.52 27.4798 95.4 27.4798H100.48C101.36 27.4798 102.08 26.7598 102.08 25.8798V20.3598C102.08 19.4798 101.36 18.7598 100.48 18.7598Z" fill="#EA5C25"/>
<path d="M195.32 13.1599C195.32 8.71987 191.72 5.11987 187.28 5.11987H12.7199C8.27993 5.11987 4.67993 8.71987 4.67993 13.1599V46.9199H86.5999L70.7599 27.1599L69.7999 28.7999V35.0399H62.6399V11.2799H69.7999V19.5199L76.4799 11.2799H85.8399L77.2399 23.1999L96.4799 46.9199H195.32V13.1599ZM30.2399 35.0399L29.2799 32.5599H24.1599L23.3599 35.0399H15.1999L23.2399 10.9999H30.6399L38.0799 35.0399H30.2399ZM57.9199 35.1199H42.7599V11.2799H50.1999V26.8799H57.9199V35.1199ZM109.04 30.4399C109.04 33.0799 106.88 35.1999 104.24 35.1999H91.5599C88.9199 35.1999 86.7999 33.0399 86.7999 30.4399V16.1999C86.7999 13.5599 88.9199 11.4399 91.5599 11.4399H104.24C106.88 11.4399 109.04 13.5599 109.04 16.1999V30.4399ZM137 17.7999H129.84C129.84 17.7999 129.6 15.9999 128.2 15.9999C126.92 15.9999 125.64 15.9599 123.8 15.9599C122.04 15.9599 121.56 16.7999 121.56 18.0799C121.56 19.3199 121.88 20.1999 123 20.1999H132.32C134.6 20.1999 136.88 21.5999 136.88 24.9999C136.88 26.8399 136.88 26.8399 136.88 29.4799C136.88 33.0799 134.68 34.9199 130.96 34.9199C129.12 34.9199 122.12 35.0799 119.56 35.0799C117.04 35.0799 114.48 33.0799 114.48 30.9999V28.5999H121.52C121.52 28.5999 121.64 30.4399 123.32 30.4399H127.8C129.96 30.4399 130.36 28.9999 130.36 27.5999C130.36 26.1999 129.12 25.4799 127.96 25.4799H119.4C116.68 25.4799 114.48 23.1999 114.48 21.3999V15.9599C114.48 13.5599 116.16 11.4799 120.12 11.4799H132.48C137.48 11.4799 137 17.7999 137 17.7999ZM163.4 18.6399H155.4V35.1599H148.16V18.6399H140.4V11.3199H163.4V18.6399ZM188.56 30.4399C188.56 33.0799 186.44 35.1999 183.8 35.1999H171.12C168.48 35.1999 166.32 33.0399 166.32 30.4399V16.1999C166.32 13.5599 168.44 11.4399 171.12 11.4399H183.8C186.44 11.4399 188.56 13.5599 188.56 16.1999V30.4399Z" fill="#EA5C25"/>
<path d="M180.04 18.7598H174.96C174.08 18.7598 173.36 19.4798 173.36 20.3598V25.8798C173.36 26.7598 174.08 27.4798 174.96 27.4798H180.04C180.92 27.4798 181.64 26.7598 181.64 25.8798V20.3598C181.6 19.4798 180.92 18.7598 180.04 18.7598Z" fill="#EA5C25"/>
<path d="M89.1199 12.0798C89.0399 12.1198 88.9599 12.1598 88.8799 12.1998C88.9999 12.1598 89.0799 12.1198 89.1199 12.0798Z" fill="#004996"/>
<path d="M89.72 11.7597C89.8 11.7197 89.88 11.7197 89.96 11.6797C89.88 11.7197 89.8 11.7597 89.72 11.7597Z" fill="#004996"/>
<path d="M107.6 12.7998C107.64 12.8398 107.72 12.9198 107.76 12.9998C107.72 12.9198 107.68 12.8798 107.6 12.7998Z" fill="#004996"/>
<path d="M100.48 27.4798C101.36 27.4798 102.08 26.7598 102.08 25.8798V20.3598C102.08 19.4798 101.36 18.7598 100.48 18.7598H95.4C94.52 18.7598 93.8 19.4798 93.8 20.3598V22.5598H95C95.88 22.5598 96.6 23.2798 96.6 24.1598V27.4798H100.48Z" fill="#004996"/>
<path d="M104.24 11.3997C105.52 11.3997 106.68 11.9197 107.56 12.7597C106.72 11.9197 105.52 11.3997 104.24 11.3997Z" fill="#004996"/>
<path d="M104.24 35.1997H91.56C88.92 35.1997 86.8 33.0397 86.8 30.4397V16.1997C86.8 14.6797 87.52 13.3597 88.6 12.4797C88.48 12.5597 88.36 12.6397 88.24 12.7597L83.92 16.2397C82.6 17.0797 81.72 18.5597 81.72 20.2797V28.6797L90.32 39.2797H99.2C100.6 39.2797 101.84 38.6797 102.72 37.7197L106.56 34.5997C106.64 34.5597 106.68 34.5197 106.72 34.4797C106 34.9197 105.16 35.1997 104.24 35.1997Z" fill="#004996"/>
<path d="M28.6 27.4798L26.76 17.5198L24.76 27.4798H28.6Z" fill="#004996"/>
<path d="M69.8 19.5197L76.48 11.2797H76.56L76.48 11.1997L69.8 16.9597V19.5197Z" fill="#004996"/>
<path d="M70.7599 27.1598L69.8 28.8398V35.0798H62.64V11.2798L57.2799 15.1998V26.8798H57.92V35.1198H42.7599V11.2798L37.56 15.1998V33.3598L38.12 35.0398H30.24L29.28 32.5598H24.16L23.4 35.0398H15.2L23.24 10.9998L18.28 14.9998L10.2 39.0798H18.44L21.08 36.5598H24.32L25.28 39.0798H33.12L37.56 35.4398V39.0798H52.7599L57.2799 35.6398V38.9998H64.44L69.2 35.6398L77.96 46.9198H86.6L70.7599 27.1598Z" fill="#004996"/>
<path d="M169.24 11.7599C169.4 11.6799 169.56 11.6799 169.72 11.5999C169.56 11.6799 169.4 11.7199 169.24 11.7599Z" fill="#004996"/>
<path d="M180.04 27.4798C180.92 27.4798 181.64 26.7598 181.64 25.8798V20.3598C181.64 19.4798 180.92 18.7598 180.04 18.7598H174.96C174.08 18.7598 173.36 19.4798 173.36 20.3598V22.5598H174.56C175.44 22.5598 176.16 23.2798 176.16 24.1598V27.4798H180.04Z" fill="#004996"/>
<path d="M168.68 12.0398C168.6 12.0798 168.52 12.1198 168.44 12.1998C168.52 12.1598 168.6 12.1198 168.68 12.0398Z" fill="#004996"/>
<path d="M132.48 11.4797C132.76 11.4797 133.04 11.5197 133.32 11.5597C133.04 11.4797 132.76 11.4797 132.48 11.4797Z" fill="#004996"/>
<path d="M134.8 12.1199C134.96 12.1999 135.08 12.3199 135.24 12.4399C135.12 12.3199 134.96 12.1999 134.8 12.1199Z" fill="#004996"/>
<path d="M91.5599 11.3997C91.2399 11.3997 90.9199 11.4397 90.5999 11.4797C90.9199 11.4397 91.1999 11.3997 91.5599 11.3997Z" fill="#004996"/>
<path d="M134.56 20.7598C134.4 20.6798 134.24 20.5998 134.08 20.5598C134.28 20.5998 134.44 20.6798 134.56 20.7598Z" fill="#004996"/>
<path d="M148.16 18.6398H140.4V11.3198L136.32 13.9198C136.08 13.3998 135.72 12.8798 135.28 12.4798C137.24 14.2798 136.96 17.7998 136.96 17.7998H129.8C129.8 17.7998 129.56 15.9998 128.16 15.9998C126.88 15.9998 125.6 15.9598 123.76 15.9598C122 15.9598 121.52 16.7998 121.52 18.0798C121.52 19.3198 121.84 20.1998 122.96 20.1998H132.28C132.8 20.1998 133.36 20.2798 133.88 20.4398C133.8 20.3998 133.76 20.3998 133.68 20.3598L135.16 19.2398V21.1198C135.12 21.0798 135.04 21.0398 134.96 20.9998C135.56 21.3998 136.08 21.9598 136.4 22.7198C136.4 22.6798 136.36 22.6398 136.36 22.5998H143.24V39.1198H150.48L155.4 35.1998H148.16V18.6398Z" fill="#004996"/>
<path d="M183.76 35.1998H171.08C168.44 35.1998 166.28 33.0398 166.28 30.4398V16.1998C166.28 14.7198 166.88 13.4798 167.96 12.5598C167.88 12.6398 167.84 12.6798 167.76 12.7598L163.44 16.2398V18.6398H155.44V22.5598L158.56 22.5198L161.28 20.3598V34.4798C161.28 37.1198 163.44 39.2798 166.04 39.2798H178.76C180.16 39.2798 181.4 38.6798 182.28 37.7198L186.12 34.5998C186.16 34.5598 186.2 34.5598 186.28 34.5198C185.52 34.9598 184.56 35.1998 183.76 35.1998Z" fill="#004996"/>
<path d="M107.36 34.0398C107.44 33.9598 107.56 33.9198 107.64 33.8398C107.52 33.9198 107.44 33.9598 107.36 34.0398Z" fill="#004996"/>
<path d="M108.44 32.6797C108.4 32.7997 108.32 32.8797 108.28 32.9997C108.32 32.8797 108.36 32.7997 108.44 32.6797Z" fill="#004996"/>
<path d="M130.96 34.9198C129.12 34.9198 122.12 35.0798 119.56 35.0798C117.04 35.0798 114.48 33.0798 114.48 30.9998V28.5998H121.52C121.52 28.5998 121.64 30.4398 123.32 30.4398H127.8C129.96 30.4398 130.36 28.9998 130.36 27.5998C130.36 26.1998 129.12 25.4798 127.96 25.4798H119.4C116.68 25.4798 114.48 23.1998 114.48 21.3998V15.9598C114.48 14.4798 115.12 13.1198 116.56 12.2798C116.24 12.4798 115.92 12.6798 115.68 12.9198L111.24 16.3998C111.08 16.5198 110.96 16.6398 110.8 16.7198C109.88 17.5598 109.44 18.7198 109.44 19.9198V25.3998C109.44 26.9598 111.08 28.8398 113.28 29.3598L109.44 32.5998V34.9598C109.44 36.9998 111.96 39.0398 114.52 39.0398C117.04 39.0398 124.08 38.8798 125.88 38.8798C127.04 38.8798 128.08 38.7198 128.96 38.3598L129.08 38.2398C129.72 37.9598 130.28 37.5598 130.72 37.0398L134.48 34.1598C133.52 34.6798 132.36 34.9198 130.96 34.9198Z" fill="#004996"/>
<path d="M135.44 33.3997C135.52 33.3197 135.56 33.2397 135.64 33.1997C135.56 33.2797 135.48 33.3597 135.44 33.3997Z" fill="#004996"/>
<path d="M118.28 11.6799C118.4 11.6399 118.52 11.5999 118.68 11.5999C118.56 11.5999 118.44 11.6399 118.28 11.6799Z" fill="#004996"/>
<path d="M136.32 32.1597C136.28 32.2797 136.2 32.3997 136.16 32.4797C136.2 32.3597 136.24 32.2797 136.32 32.1597Z" fill="#004996"/>
<path d="M116.96 12.1196C117.12 12.0396 117.32 11.9596 117.52 11.8796C117.32 11.9196 117.16 12.0396 116.96 12.1196Z" fill="#004996"/>
<path d="M187.4 62.84H12.52C8.07998 62.84 4.47998 59.24 4.47998 54.8V50.24H195.48V54.8C195.48 59.24 191.88 62.84 187.4 62.84Z" fill="#004996"/>
</g>
<defs>
<clipPath id="clip0_165_374">
<rect width="200" height="68" fill="white"/>
</clipPath>
</defs>
</svg>
